# xmcd
#
# Track frame offsets: 
#        150
#        9742
#        17805
#        33522
#        41812
#        49815
#        57010
#        65487
#        73467
#        84230
#        92725
#        105277
#        126160
#
# Disc length: 4440 seconds
#
# Revision: 1
# Processed by: cddbd v1.5.2PL0 Copyright (c) Steve Scherf et al.
# Submitted via: ExactAudioCopy v0.99pb4
#
DISCID=ad11560d
DTITLE=Benito de Paula - Benito de Paula
DYEAR=1971
DGENRE=MPB
TTITLE0=Apesar de Você
TTITLE1=Jesus Cristo
TTITLE2=Você Vai Ser Alguém
TTITLE3=Viagem
TTITLE4=Na Tonga da Mironga do Kabuletê
TTITLE5=Longe de Você
TTITLE6=Salve Salve
TTITLE7=Madalena (Versão Inédita)
TTITLE8=Eu Gosto Dela
TTITLE9=Azul da Cor do Mar
TTITLE10=Menina
TTITLE11=Preciso Encontrar Você
TTITLE12=Data
EXTD=YEAR: 1966
EXTT0=
EXTT1=
EXTT2=
EXTT3=
EXTT4=
EXTT5=
EXTT6=
EXTT7=
EXTT8=
EXTT9=
EXTT10=
EXTT11=
EXTT12=
PLAYORDER=
